/* XPM */
static char *dummy[]={
"6 9 21 1",
"b c #000000",
"a c #101010",
"f c #111111",
"i c #5b5955",
"n c #5d5b56",
"p c #61605a",
"g c #66655f",
"r c #6a6862",
"c c #6e6d66",
"l c #74706b",
"# c #7d7b73",
"e c #87847c",
"m c #89857d",
"h c #8f8b82",
"q c #908c84",
"k c #959187",
"s c #9b978c",
". c #9f9b90",
"j c #a7a298",
"o c #a8a498",
"d c #a9a599",
".#abbb",
"cdefbb",
"bgdhbb",
"bbijkb",
"bbbldm",
"bbnokb",
"bpdqbb",
"rdmbbb",
"s#abbb"};
