/* XPM */
static char *dummy[]={
"24 24 52 1",
". c #000000",
"O c #1a1212",
"e c #1b1213",
"U c #221415",
"# c #231515",
"m c #4a2021",
"j c #4b2022",
"P c #4d2122",
"S c #67282b",
"f c #6b292c",
"k c #6e2a2d",
"d c #823033",
"D c #9d0208",
"a c #9e383c",
"I c #a1060c",
"B c #a2060c",
"w c #a3070d",
"G c #a4080e",
"V c #a63a3e",
"s c #aa0d13",
"q c #ad3c41",
"N c #ae1218",
"J c #b01319",
"M c #b1141a",
"o c #b2151b",
"A c #bc1e24",
"y c #c74449",
"b c #c84449",
"r c #cb2d33",
"v c #cf3036",
"C c #d03137",
"H c #d23238",
"x c #d33339",
"i c #d6484d",
"F c #d9393f",
"t c #dd3d43",
"E c #de4a50",
"u c #e04b50",
"W c #e24b51",
"g c #e54c52",
"T c #e64d52",
"c c #e74d53",
"Q c #ea484e",
"p c #ea494f",
"L c #ea4e53",
"R c #eb4a50",
"n c #eb4e54",
"X c #ed4e54",
"z c #ee4f55",
"K c #ef4d53",
"l c #f15056",
"h c #f25056",
"........................",
"........................",
"........................",
"........................",
"........................",
"........#abccbde........",
".......fghhhhhhij.......",
"......khhhhhhhhhlm......",
".....#nhophhhhpohie.....",
".....qhhrsthhtsrhhd.....",
".....uhhhvwxxwvhhhy.....",
".....zhhhhABBAhhhhc.....",
".....zhhhhCDDChhhhc.....",
".....EhhhFGooGFhhhy.....",
".....ahhHIJKKJIHhhd.....",
".....#LhMNphhpNMhiO.....",
"......PhQRhhhhRQlm......",
".......SThhhhhhim.......",
"........UVWXcyde........",
"........................",
"........................",
"........................",
"........................",
"........................"};
