/* XPM */
static char *dummy[]={
"24 24 7 1",
". c #000000",
"c c #292929",
"# c #2a2a2a",
"a c #acacac",
"b c #e7e7e7",
"d c #eeeeee",
"e c #ffffff",
"........................",
"........................",
"........................",
"........................",
"........................",
"........................",
"........................",
"........................",
".........#abbac.........",
"........cdeeeedc........",
"........aeeeeeea........",
"........beeeeeeb........",
"........beeeeeeb........",
"........aeeeeeea........",
"........cdeeeedc........",
".........cabbac.........",
"........................",
"........................",
"........................",
"........................",
"........................",
"........................",
"........................",
"........................"};
