/* XPM */
static char *dummy[]={
"24 24 30 1",
". c #0f0f0f",
"u c #131814",
"e c #141914",
"y c #171f17",
"# c #172018",
"m c #274329",
"j c #27432a",
"v c #28462b",
"w c #335c37",
"f c #345f38",
"k c #36633a",
"d c #3e7443",
"a c #498d4f",
"z c #4c9453",
"o c #4f9a56",
"b c #5ab162",
"t c #5fbd68",
"i c #60be69",
"r c #63c46c",
"p c #64c66d",
"A c #65c86e",
"g c #66ca6f",
"x c #66cc70",
"c c #67cd70",
"s c #68cf71",
"n c #68d072",
"B c #69d173",
"q c #6ad373",
"l c #6bd575",
"h c #6bd675",
"........................",
"........................",
"........................",
"........................",
"........................",
"........#abccbde........",
".......fghhhhhhij.......",
"......khhhhhhhhhlm......",
".....#nhhhhhhhhhhie.....",
".....ohhhhhhhhhhhhd.....",
".....phhhhhhhhhhhhb.....",
".....qhhhhhhhhhhhhc.....",
".....qhhhhhhhhhhhhc.....",
".....rhhhhhhhhhhhhb.....",
".....ahhhhhhhhhhhhd.....",
".....#shhhhhhhhhhtu.....",
"......vhhhhhhhhhlm......",
".......wxhhhhhhim.......",
"........yzABcbde........",
"........................",
"........................",
"........................",
"........................",
"........................"};
