/* XPM */
static char *dummy[]={
"50 20 106 2",
"Qt c None",
".# c #692824",
".a c #023B1F",
"#d c #78211c",
".j c #78221d",
"#N c #79231e",
".S c #79231f",
".O c #7a2520",
"#D c #7b2722",
"#G c #7f2d28",
"#r c #81302b",
"#g c #81312c",
".i c #82312d",
"#l c #843530",
"#s c #853732",
".0 c #853833",
"#p c #863834",
".B c #863935",
".A c #893d39",
"#z c #8a3f3a",
".b c #8a3f3b",
".Y c #8b403c",
".v c #8d4440",
".V c #8e4642",
".7 c #924d49",
".t c #944f4b",
".4 c #975451",
".o c #985552",
"#h c #9a5955",
".s c #9b5b58",
".z c #9e605c",
".H c #a0625f",
".C c #a16461",
".w c #a16562",
"#F c #a36864",
".f c #a36965",
".l c #a46966",
"## c #a56b68",
".U c #a76f6b",
".y c #a8706c",
"#t c #a9716e",
"#k c #ab7673",
"#I c #af7c79",
".n c #b07d7a",
".u c #b17e7c",
".9 c #b3827f",
".1 c #b38380",
"#J c #b68784",
"#a c #b78986",
".q c #b88a87",
".5 c #b88b88",
".J c #b98c8a",
"#w c #ba8e8c",
".r c #bb908d",
"#m c #bc928f",
".x c #bd9391",
"#u c #be9492",
".e c #bf9694",
".I c #c39c9a",
"#y c #c49f9d",
".F c #c8a4a2",
"#L c #c8a5a3",
".N c #c9a6a4",
".R c #caa8a6",
"#f c #d0b2b0",
".6 c #d1b3b1",
".K c #d3b6b5",
"#n c #d5bbb9",
".d c #d6bcba",
"#M c #d6bdbb",
".G c #d7bdbc",
"#E c #d9c0bf",
".L c #d9c1c0",
".Z c #dbc4c2",
"#o c #dbc4c3",
"#v c #ddc8c7",
"#. c #decac8",
"#B c #dfcbc9",
".D c #e0cccb",
".Q c #e1cecd",
".M c #e2d0cf",
".2 c #e4d3d2",
".3 c #e9dad9",
".W c #ece0df",
"#x c #ede1e1",
"#e c #ede2e1",
"#c c #eee4e3",
"#A c #efe5e4",
".k c #f0e6e5",
"#b c #f1e7e7",
".T c #f2eaea",
"#j c #f3ebea",
"#C c #f4edec",
".8 c #f4eeed",
".P c #f5efef",
".E c #f6f1f1",
"#q c #f8f4f3",
"#H c #faf6f6",
"#K c #faf7f7",
".p c #fbf9f9",
".m c #fcfafa",
"#i c #fcfbfb",
".h c #fdfcfb",
".c c #fdfcfc",
".X c #fefefe",
".g c #ffffff",
"Qt.#.#.#.#.#.#.#.#.#.#.#.#.#.#.#.#.#.#.#.#.#.#.#.#.#.#.#.#.#.#.#.#.#.#.#.#.#.#.#.#.#.#.#.#.#.#.#.#Qt",
".#.a.a.a.a.a.a.a.a.a.a.a.a.a.a.a.a.a.a.a.a.a.a.a.a.a.a.a.a.a.a.a.a.a.a.a.a.a.a.a.a.a.a.a.a.a.a.a.a.#",
".#.a.a.a.a.a.a.a.a.a.a.a.a.a.a.a.a.a.a.a.a.a.a.a.a.a.a.a.a.a.a.a.a.a.a.a.a.a.a.a.a.a.a.a.a.a.a.a.a.#",
".#.a.a.a.a.a.a.a.a.a.a.a.a.a.a.a.a.a.a.a.a.a.a.a.a.a.a.a.a.a.a.a.a.a.a.a.a.a.a.a.a.a.a.a.a.a.a.a.a.#",
".#.a.a.a.a.a.a.a.a.a.a.a.a.a.a.a.a.a.a.a.a.a.a.a.a.a.a.a.a.a.a.a.a.a.a.a.a.a.a.a.a.a.a.a.a.a.a.a.a.#",
".#.a.a.a.a.a.a.b.c.c.d.a.a.a.a.e.c.c.f.a.a.a.a.a.a.a.a.a.a.a.a.a.a.a.a.a.a.a.a.a.a.a.a.a.a.a.a.a.a.#",
".#.a.a.a.a.a.a.b.g.g.h.i.a.a.j.k.g.g.l.a.a.a.a.a.a.a.a.a.a.a.a.a.a.a.a.a.a.a.a.a.a.a.a.a.a.a.a.a.a.#",
".#.a.a.a.a.a.a.b.g.m.g.n.a.a.o.g.p.g.l.a.a.b.q.r.s.a.a.t.u.v.w.x.y.j.a.z.u.A.a.B.u.C.a.a.a.a.a.a.a.#",
".#.a.a.a.a.a.a.b.g.D.E.D.a.a.F.g.G.g.l.a.H.p.g.g.g.I.a.r.g.k.g.g.g.J.a.K.g.H.a.s.g.L.a.a.a.a.a.a.a.#",
".#.a.a.a.a.a.a.b.g.M.N.g.A.O.P.Q.R.g.l.S.T.g.U.V.W.X.Y.r.g.Z.0.1.g.2.a.K.g.H.a.s.g.L.a.a.a.a.a.a.a.#",
".#.a.a.a.a.a.a.b.g.3.4.g.5.H.g.n.6.g.l.7.g.8.9.9#..g##.r.g#a.a.0.g#b.a.K.g.H.a.s.g.L.a.a.a.a.a.a.a.#",
".#.a.a.a.a.a.a.b.g#c#d#e.3#f.h#g.G.g.l#h.g#i#j#j#j#j#k.r.g#a.a#l.g#b.a.K.g.H.a.s.g.L.a.a.a.a.a.a.a.#",
".#.a.a.a.a.a.a.b.g#j.a#m.g.h#n.a#o.g.l#p.g#q#r.a#d#s.a.r.g#a.a#l.g#b.a#f.g#t.a.z.g.L.a.a.a.a.a.a.a.#",
".#.a.a.a.a.a.a.b.g#j.a.Y.g.g.l.a#o.g.l#d.K.g.M#u#v.T#r.r.g#a.a#l.g#b.a#w.g#x#y#c.g.L.a.a.a.a.a.a.a.#",
".#.a.a.a.a.a.a#z.p#A.a.a#B#C#D.a#E.p#F.a#G.N#H.g.k#I.a.J.p#J.a#l.p#x.a#r.D.g#K#L.p#M.a.a.a.a.a.a.a.#",
".#.a.a.a.a.a.a.a.a.a.a.a.a.a.a.a.a.a.a.a.a.a.j#G.a.a.a.a.a.a.a.a.a.a.a.a.a#G#N.a.a.a.a.a.a.a.a.a.a.#",
".#.a.a.a.a.a.a.a.a.a.a.a.a.a.a.a.a.a.a.a.a.a.a.a.a.a.a.a.a.a.a.a.a.a.a.a.a.a.a.a.a.a.a.a.a.a.a.a.a.#",
".#.a.a.a.a.a.a.a.a.a.a.a.a.a.a.a.a.a.a.a.a.a.a.a.a.a.a.a.a.a.a.a.a.a.a.a.a.a.a.a.a.a.a.a.a.a.a.a.a.#",
".#.a.a.a.a.a.a.a.a.a.a.a.a.a.a.a.a.a.a.a.a.a.a.a.a.a.a.a.a.a.a.a.a.a.a.a.a.a.a.a.a.a.a.a.a.a.a.a.a.#",
"Qt.#.#.#.#.#.#.#.#.#.#.#.#.#.#.#.#.#.#.#.#.#.#.#.#.#.#.#.#.#.#.#.#.#.#.#.#.#.#.#.#.#.#.#.#.#.#.#.#Qt"};
