/* XPM */
static char *dummy[]={
"1 45 3 1",
"# c #ab2f26",
". c #731d19",
"a c #ab2f26",
".",
".",
".",
".",
".",
".",
".",
".",
".",
".",
".",
".",
".",
".",
".",
".",
".",
".",
".",
".",
".",
".",
".",
".",
".",
".",
".",
".",
".",
".",
".",
".",
".",
".",
".",
".",
".",
".",
".",
"#",
"a",
"a",
"a",
"a",
"a"};
