/* XPM */
static char *dummy[]={
"45 32 3 1",
". c #0f0f0f",
"a c #131416",
"# c #6f8fb6",
".............................................",
".............................................",
".............................................",
".............................................",
".............................................",
".............................................",
".............########....########............",
".............########....########............",
".............########....########............",
".............########....########............",
".............########....########............",
".............########....########............",
".............########....########............",
".............########....########............",
"................................a............",
".............................................",
".............................................",
".............................................",
".............########....########............",
".............########....########............",
".............########....########............",
".............########....########............",
".............########....########...........a",
".............########....########............",
".............########....########............",
".............########....########............",
".............................................",
".............................................",
".............................................",
".............................................",
".............................................",
"............................................."};
