/* XPM */
static char *dummy[]={
"250 45 18 1",
". c #000000",
"a c #711d19",
"# c #731d19",
"c c #771e1a",
"m c #781e1b",
"d c #7b201b",
"p c #852822",
"k c #86231e",
"j c #8a241e",
"l c #8e251f",
"g c #8f2620",
"n c #932720",
"b c #942821",
"e c #9e2b23",
"f c #9f2b23",
"o c #a62e26",
"i c #aa2f26",
"h c #ab2f26",
"....##################################################################################################################################################################################################################################################....",
"...####################################################################################################################################################################################################################################################...",
"..######################################################################################################################################################################################################################################################..",
"..######################################################################################################################################################################################################################################################..",
"..#####################################################################################################################################################################################################################################################a..",
"..######################################################################################################################################################################################################################################################..",
"..######################################################################################################################################################################################################################################################..",
"..######################################################################################################################################################################################################################################################..",
"..######################################################################################################################################################################################################################################################..",
"..######################################################################################################################################################################################################################################################..",
"..######################################################################################################################################################################################################################################################..",
"..######################################################################################################################################################################################################################################################..",
"..######################################################################################################################################################################################################################################################..",
"..######################################################################################################################################################################################################################################################..",
"..######################################################################################################################################################################################################################################################..",
"..######################################################################################################################################################################################################################################################..",
"..######################################################################################################################################################################################################################################################..",
"..######################################################################################################################################################################################################################################################..",
"..######################################################################################################################################################################################################################################################..",
"..######################################################################################################################################################################################################################################################..",
"..######################################################################################################################################################################################################################################################..",
"..######################################################################################################################################################################################################################################################..",
"..######################################################################################################################################################################################################################################################..",
"..######################################################################################################################################################################################################################################################..",
"..######################################################################################################################################################################################################################################################..",
"..######################################################################################################################################################################################################################################################..",
"..######################################################################################################################################################################################################################################################..",
"..######################################################################################################################################################################################################################################################..",
"..######################################################################################################################################################################################################################################################..",
"..######################################################################################################################################################################################################################################################..",
"..######################################################################################################################################################################################################################################################..",
"..######################################################################################################################################################################################################################################################..",
"..######################################################################################################################################################################################################################################################..",
"..######################################################################################################################################################################################################################################################..",
"..######################################################################################################################################################################################################################################################..",
"..######################################################################################################################################################################################################################################################..",
"..######################################################################################################################################################################################################################################################..",
"..bc###################################################################################################################################################################################################################################################d..",
"..ef##################################################################################################################################################################################################################################################gh..",
"..hij################################################################################################################################################################################################################################################khh..",
"..hhilm############################################################################################################################################################################################################################################mnhhh..",
"..hhhhhhhhhhhhhhhhhhhhhhhhhhhhhhhhhhhhhhhhhhhhhhhhhhhhhhhhhhhhhhhhhhhhhhhhhhhhhhhhhhhhhhhhhhhhhhhhhhhhhhhhhhhhhhhhhhhhhhhhhhhhhhhhhhhhhhhhhhhhhhhhhhhhhhhhhhhhhhhhhhhhhhhhhhhhhhhhhhhhhhhhhhhhhhhhhhhhhhhhhhhhhhhhhhhhhhhhhhhhhhhhhhhhhhhhhhhhhhhhhhhhhh..",
"..ohhhhhhhhhhhhhhhhhhhhhhhhhhhhhhhhhhhhhhhhhhhhhhhhhhhhhhhhhhhhhhhhhhhhhhhhhhhhhhhhhhhhhhhhhhhhhhhhhhhhhhhhhhhhhhhhhhhhhhhhhhhhhhhhhhhhhhhhhhhhhhhhhhhhhhhhhhhhhhhhhhhhhhhhhhhhhhhhhhhhhhhhhhhhhhhhhhhhhhhhhhhhhhhhhhhhhhhhhhhhhhhhhhhhhhhhhhhhhhhhhhhhp..",
"...hhhhhhhhhhhhhhhhhhhhhhhhhhhhhhhhhhhhhhhhhhhhhhhhhhhhhhhhhhhhhhhhhhhhhhhhhhhhhhhhhhhhhhhhhhhhhhhhhhhhhhhhhhhhhhhhhhhhhhhhhhhhhhhhhhhhhhhhhhhhhhhhhhhhhhhhhhhhhhhhhhhhhhhhhhhhhhhhhhhhhhhhhhhhhhhhhhhhhhhhhhhhhhhhhhhhhhhhhhhhhhhhhhhhhhhhhhhhhhhhhhhh...",
"....hhhhhhhhhhhhhhhhhhhhhhhhhhhhhhhhhhhhhhhhhhhhhhhhhhhhhhhhhhhhhhhhhhhhhhhhhhhhhhhhhhhhhhhhhhhhhhhhhhhhhhhhhhhhhhhhhhhhhhhhhhhhhhhhhhhhhhhhhhhhhhhhhhhhhhhhhhhhhhhhhhhhhhhhhhhhhhhhhhhhhhhhhhhhhhhhhhhhhhhhhhhhhhhhhhhhhhhhhhhhhhhhhhhhhhhhhhhhhhhhhh...."};
