/* XPM */
static char *dummy[]={
"24 54 36 1",
". c #0f0f0f",
"q c #131314",
"B c #27080b",
"r c #28080b",
"F c #59222d",
"j c #5b222c",
"f c #5c222d",
"C c #7f2531",
"u c #802530",
"e c #812430",
"# c #822430",
"w c #af3839",
"s c #b1393a",
"t c #b2393a",
"x c #b43a3b",
"v c #b53b3c",
"n c #c13f40",
"G c #c8333d",
"y c #c8343d",
"d c #c9343d",
"a c #ca343d",
"m c #d94748",
"o c #da4849",
"D c #e13b42",
"p c #e23b42",
"i c #e23c43",
"g c #e33b42",
"A c #e33b43",
"H c #e33c43",
"b c #e43b43",
"c c #e43c43",
"z c #e43c44",
"l c #ee4c4e",
"E c #ee4c4f",
"k c #ee4f51",
"h c #ee5353",
"........................",
"........................",
"........................",
"........................",
"........................",
"........................",
".........#abcde.........",
".......fghhhhhhij.......",
"......fkhhhhhhhhlj......",
"......ghmnhhhhnohpq.....",
".....#hhnrshhtrnhhu.....",
".....ahhhvrwxrwhhhy.....",
".....zhhhhtrrthhhhA.....",
".....ghhhhtBBthhhhi.....",
".....ahhhxrwxrwhhhy.....",
".....ehhnBshhtrnhhC.....",
"......ihonhhhhnohD......",
"......jlhhhhhhhhEF......",
".......jihhhhhhDF.......",
"........quGHHGC.........",
"........................",
"........................",
"........................",
"........................",
"........................",
"........................",
"........................",
"........................",
"........................",
"........................",
"........................",
"........................",
"........................",
".........#abcde.........",
".......fghhhhhhij.......",
"......fkhhhhhhhhlj......",
"......ghmnhhhhnohpq.....",
".....#hhnrshhtrnhhu.....",
".....ahhhvrwxrwhhhy.....",
".....zhhhhtrrthhhhA.....",
".....ghhhhtBBthhhhi.....",
".....ahhhxrwxrwhhhy.....",
".....ehhnBshhtrnhhC.....",
"......ihonhhhhnohD......",
"......jlhhhhhhhhEF......",
".......jihhhhhhDF.......",
"........quGHHGC.........",
"........................",
"........................",
"........................",
"........................",
"........................",
"........................",
"........................"};
