/* XPM */
static char *dummy[]={
"36 72 28 1",
". c #0f0f0f",
"# c #111111",
"l c #36373a",
"i c #36383b",
"u c #383a3d",
"v c #494b50",
"e c #4b4e53",
"j c #4e5055",
"d c #5a5d64",
"a c #6d7179",
"x c #72767f",
"n c #777b84",
"p c #888d97",
"b c #898d98",
"t c #9197a2",
"h c #9297a3",
"r c #979ca8",
"o c #989eaa",
"y c #999fab",
"f c #9ba1ad",
"w c #9ca2ae",
"c c #9da3af",
"s c #9fa5b1",
"m c #9fa5b2",
"z c #a0a6b3",
"q c #a2a8b4",
"k c #a3a9b6",
"g c #a4aab7",
"....................................",
"....................................",
"....................................",
"....................................",
"....................................",
"....................................",
"....................................",
"....................................",
"....................................",
"....................................",
"....................................",
"........#abccbd#....................",
".......efgggggghi...................",
"......jgggggggggkl..................",
".....#mggggggggggh#.................",
".....nggggggggggggd.................",
".....oggggggggggggp.................",
".....qggggggggggggc.................",
".....qggggggggggggc.................",
".....rggggggggggggp.................",
".....aggggggggggggd.................",
".....#sggggggggggt..................",
"......ugggggggggkl..................",
".......vwgggggghl...................",
"........#xyzcpd#....................",
"....................................",
"....................................",
"....................................",
"....................................",
"....................................",
"....................................",
"....................................",
"....................................",
"....................................",
"....................................",
"....................................",
"....................................",
"....................................",
"....................................",
"....................................",
"....................................",
"....................................",
"....................................",
"....................................",
"....................................",
"....................................",
"....................................",
"....................................",
"....................................",
"....................................",
"....................................",
"....................................",
"....................................",
"....................................",
"....................................",
"....................................",
"....................................",
"....................................",
"....................................",
"....................................",
"....................................",
"....................................",
"....................................",
"....................................",
"....................................",
"....................................",
"....................................",
"....................................",
"....................................",
"....................................",
"....................................",
"...................................."};
