/* XPM */
static char *dummy[]={
"36 72 51 1",
". c #0f0f0f",
"P c #1a1311",
"e c #1b1411",
"T c #221712",
"# c #231712",
"m c #4c2819",
"j c #4d2819",
"Q c #50291a",
"R c #6a341e",
"f c #6e351f",
"k c #72371f",
"d c #863f23",
"B c #a33b11",
"a c #a34b28",
"A c #a73d13",
"z c #a93e14",
"x c #aa3f14",
"y c #ab3f14",
"w c #ac4015",
"U c #ac4e29",
"v c #ae4116",
"o c #b3512a",
"u c #b44518",
"t c #bd4a1c",
"q c #ce5c2f",
"b c #cf5c2f",
"C c #d95b28",
"G c #dc5c29",
"F c #dd5d2a",
"i c #dd6231",
"H c #df5e2b",
"I c #e2602c",
"J c #e3602c",
"E c #e4612c",
"K c #e4612d",
"L c #e5612d",
"N c #e56532",
"p c #e86733",
"V c #e96733",
"s c #ec6630",
"g c #ec6834",
"S c #ee6934",
"c c #ef6a34",
"O c #f26b35",
"n c #f36b35",
"M c #f46a33",
"W c #f46c35",
"D c #f66c34",
"r c #f66d35",
"l c #f96e36",
"h c #fa6e36",
"....................................",
"....................................",
"....................................",
"....................................",
"....................................",
"....................................",
"....................................",
"....................................",
"....................................",
"....................................",
"....................................",
"........#abccbde....................",
".......fghhhhhhij...................",
"......khhhhhhhhhlm..................",
".....#nhhhhhhhhhhie.................",
".....ohhhhhhhhhhhhd.................",
".....phhhhhhhhhhhhq.................",
".....rstuvwxyzABChc.................",
".....rDEFGFHIJKLMhc.................",
".....Nhhhhhhhhhhhhq.................",
".....ahhhhhhhhhhhhd.................",
".....#OhhhhhhhhhhiP.................",
"......Qhhhhhhhhhlm..................",
".......RShhhhhhim...................",
"........TUVWcqde....................",
"....................................",
"....................................",
"....................................",
"....................................",
"....................................",
"....................................",
"....................................",
"....................................",
"....................................",
"....................................",
"....................................",
"....................................",
"....................................",
"....................................",
"....................................",
"....................................",
"....................................",
"....................................",
"....................................",
"....................................",
"....................................",
"....................................",
"....................................",
"....................................",
"....................................",
"....................................",
"....................................",
"....................................",
"....................................",
"....................................",
"....................................",
"....................................",
"....................................",
"....................................",
"....................................",
"....................................",
"....................................",
"....................................",
"....................................",
"....................................",
"....................................",
"....................................",
"....................................",
"....................................",
"....................................",
"....................................",
"...................................."};
