/* XPM */
static char * checkbox_unchecked_selected_xpm[] = {
"16 16 11 1",
" 	c None",
".	c #FFFFFF",
"+	c #FFFFFF",
"@	c #FFFFFF",
"#	c #FFFFFF",
"$	c #FFFFFF",
"%	c #FFFFFF",
"&	c #FFFFFF",
"*	c #FFFFFF",
"=	c #FFFFFF",
"-	c #FFFFFF",
"                ",
"    --------    ",
"                ",
"                ",
" -            - ",
" -            - ",
" -            - ",
" -            - ",
" -            - ",
" -            - ",
" -            - ",
" -            - ",
"                ",
"                ",
"    --------    ",
"                "};
