/* XPM */
static char * arrow_right_selected_xpm[] = {
"6 9 28 1",
" 	c None",
".	c #EEF4FB",
"+	c #BDD4F1",
"@	c #4988D8",
"#	c #4586D8",
"$	c #A7C6EC",
"%	c #FFFFFF",
"&	c #CBDDF4",
"*	c #4D8BD9",
"=	c #9BBEEA",
"-	c #FEFEFE",
";	c #D8E5F6",
">	c #538FDB",
",	c #8AB3E6",
"'	c #FCFDFE",
")	c #E1EBF8",
"!	c #5993DC",
"~	c #AECAEE",
"{	c #CEDFF4",
"]	c #8CB4E6",
"^	c #5A93DC",
"/	c #95BAE8",
"(	c #D9E6F7",
"_	c #548FDB",
":	c #A3C3EB",
"<	c #4E8CD9",
"[	c #E9F0FA",
"}	c #4A89D9",
".+@###",
"$%&*##",
"#=-;>#",
"##,')!",
"###~%{",
"##]')^",
"#/-(_#",
":%{<##",
"[+}###"};
