/* XPM */
static char * checkbox_checked_selected_xpm[] = {
"16 16 33 1",
" 	c None",
".	c #FFFFFF",
"+	c #FFFFFF",
"@	c #FFFFFF",
"#	c #FFFFFF",
"$	c #FFFFFF",
"%	c #FFFFFF",
"&	c #0E6BFF",
"*	c #126DFF",
"=	c #1670FF",
"-	c #287BFF",
";	c #2E7FFF",
">	c #3080FF",
",	c #3482FF",
"'	c #3D88FF",
")	c #448CFF",
"!	c #488EFF",
"~	c #4A90FF",
"{	c #4B91FF",
"]	c #4C91FF",
"^	c #D8E7FF",
"/	c #DCE9FF",
"(	c #DDEAFF",
"_	c #E5EFFF",
":	c #EAF2FF",
"<	c #ECF3FF",
"[	c #EFF5FF",
"}	c #F5F9FF",
"|	c #F6F9FF",
"1	c #F8FBFF",
"2	c #FAFCFF",
"3	c #FBFDFF",
"4	c #FFFFFF",
"                ",
"  %4444444444$  ",
" $444444444444# ",
" 44444444444444 ",
" 4444444443:444 ",
" 44444444}{*^44 ",
" 4444444}~&-<44 ",
" 442;)[|]&-(444 ",
" 443,&'!&-(4444 ",
" 444_>&&-(44444 ",
" 4444_=*/444444 ",
" 444441}4444444 ",
" 44444444444444 ",
" $444444444444# ",
"  $4444444444#  ",
"                "};
