/* XPM */
static char *dummy[]={
"24 24 30 1",
"e c #1e1e1e",
"# c #1e1e1f",
"v c #1f1f1f",
". c #212121",
"m c #36373a",
"j c #36383b",
"w c #383a3d",
"x c #494b50",
"f c #4b4e53",
"k c #4e5055",
"d c #5a5d64",
"a c #6d7179",
"z c #72767f",
"o c #777b84",
"q c #888d97",
"b c #898d98",
"u c #9197a2",
"i c #9297a3",
"s c #979ca8",
"p c #989eaa",
"A c #999fab",
"g c #9ba1ad",
"y c #9ca2ae",
"c c #9da3af",
"t c #9fa5b1",
"n c #9fa5b2",
"B c #a0a6b3",
"r c #a2a8b4",
"l c #a3a9b6",
"h c #a4aab7",
"........................",
"........................",
"........................",
"........................",
"........................",
"........#abccbde........",
".......fghhhhhhij.......",
"......khhhhhhhhhlm......",
".....#nhhhhhhhhhhie.....",
".....ohhhhhhhhhhhhd.....",
".....phhhhhhhhhhhhq.....",
".....rhhhhhhhhhhhhc.....",
".....rhhhhhhhhhhhhc.....",
".....shhhhhhhhhhhhq.....",
".....ahhhhhhhhhhhhd.....",
".....#thhhhhhhhhhuv.....",
"......whhhhhhhhhlm......",
".......xyhhhhhhim.......",
"........#zABcqde........",
"........................",
"........................",
"........................",
"........................",
"........................"};
