/* XPM */
static char *dummy[]={
"24 24 53 1",
"L c #09600f",
"y c #09610f",
"x c #09620f",
"E c #096610",
"G c #0a6110",
"J c #0b6211",
"B c #0c6312",
"q c #0c6513",
"H c #0e6615",
". c #0f0f0f",
"F c #106917",
"s c #116a17",
"z c #116a18",
"r c #126b18",
"R c #131814",
"e c #141914",
"V c #171f17",
"# c #172018",
"t c #1c7723",
"m c #274329",
"j c #27432a",
"S c #28462b",
"T c #335c37",
"f c #345f38",
"k c #36633a",
"d c #3e7443",
"a c #498d4f",
"W c #4c9453",
"o c #4f9a56",
"D c #54ba5d",
"w c #55bc5e",
"b c #5ab162",
"Q c #5fbd68",
"i c #60be69",
"I c #61ca6b",
"C c #62cb6c",
"K c #63c46c",
"N c #63cc6d",
"M c #63cd6d",
"u c #64c66d",
"X c #65c86e",
"p c #65cf6f",
"g c #66ca6f",
"U c #66cc70",
"c c #67cd70",
"O c #68cf71",
"n c #68d072",
"P c #68d271",
"Y c #69d173",
"A c #6ad373",
"v c #6ad574",
"l c #6bd575",
"h c #6bd675",
"........................",
"........................",
"........................",
"........................",
"........................",
"........#abccbde........",
".......fghhhhhhij.......",
"......khhhhhhhhhlm......",
".....#nhhhhhhhhhhie.....",
".....ohhhhpqrsthhhd.....",
".....uhhhhvwxyzhhhb.....",
".....AhhhBCvDEFhhhc.....",
".....AhhhGHIvDJhhhc.....",
".....KhhhLLBMvNhhhb.....",
".....ahhhHJLBhhhhhd.....",
".....#OhhhhhPhhhhQR.....",
"......Shhhhhhhhhlm......",
".......TUhhhhhhim.......",
"........VWXYcbde........",
"........................",
"........................",
"........................",
"........................",
"........................"};
