/* XPM */
static char *dummy[]={
"6 9 19 1",
"a c #77201b",
"n c #7f4c56",
"m c #82697f",
"h c #827894",
"e c #8b778d",
"p c #918197",
"b c #9790a8",
"k c #9a8ca0",
"# c #a596a7",
"l c #a98d97",
"d c #ad99a6",
"g c #baa8b2",
"j c #cabfc8",
"q c #e9f0fa",
". c #eef4fb",
"i c #fcfdfe",
"o c #fdfcfc",
"f c #fefefe",
"c c #ffffff",
".#aaaa",
"bcdaaa",
"aefgaa",
"aahija",
"aaakcl",
"aamila",
"anolaa",
"pclaaa",
"qlaaaa"};
