/* XPM */
static char * 1_xpm[] = {
"12 23 38 1",
" 	c None",
".	c #6D7077",
"+	c #4D4F52",
"@	c #4C4E51",
"#	c #4B4D50",
"$	c #4B4D4F",
"%	c #4A4C4F",
"&	c #A1A2A3",
"*	c #6C6E70",
"=	c #4A4C4E",
"-	c #C9CACA",
";	c #FFFFFF",
">	c #5D5E60",
",	c #C9C9CA",
"'	c #494B4E",
")	c #B9BABB",
"!	c #FBFBFB",
"~	c #686A6C",
"{	c #66676A",
"]	c #FAFAFA",
"^	c #BDBEBF",
"/	c #C5C6C7",
"(	c #F8F8F8",
"_	c #F9F9F9",
":	c #C6C7C8",
"<	c #494B4D",
"[	c #C7C7C8",
"}	c #484A4D",
"|	c #484A4C",
"1	c #47494C",
"2	c #47494B",
"3	c #46484A",
"4	c #454749",
"5	c #45474A",
"6	c #464849",
"7	c #464749",
"8	c #454849",
"9	c #45484A",
"............",
"++++++++++++",
"++++++++++++",
"++++++++++++",
"@@@@@@@@@@@@",
"@@@@@@@@@@@@",
"############",
"############",
"$$$$$$$$$$$$",
"%%&*%%%%*&%%",
"==-;>==>;,==",
"''')!~{]^'''",
"''''/(_:''''",
"<<<<=[[=<<<<",
"}}}}}}}}}}}}",
"||||||||||||",
"111111111111",
"222222222222",
"222222222222",
"333333333333",
"333333333333",
"444444444444",
"564478795944"};
