/* XPM */
static char * 2_xpm[] = {
"12 23 37 1",
" 	c None",
".	c #6D7077",
"+	c #4D4F52",
"@	c #4C4E51",
"#	c #4B4D50",
"$	c #4B4D4F",
"%	c #4A4C4F",
"&	c #757679",
"*	c #5B5C5F",
"=	c #4A4C4E",
"-	c #898B8C",
";	c #A4A5A6",
">	c #535557",
",	c #898A8B",
"'	c #494B4E",
")	c #818284",
"!	c #A2A3A4",
"~	c #585A5D",
"{	c #57595B",
"]	c #A1A2A4",
"^	c #828486",
"/	c #87888A",
"(	c #A0A1A3",
"_	c #87898B",
":	c #494B4D",
"<	c #87898A",
"[	c #484A4D",
"}	c #484A4C",
"|	c #47494C",
"1	c #47494B",
"2	c #46484A",
"3	c #454749",
"4	c #45474A",
"5	c #464849",
"6	c #464749",
"7	c #454849",
"8	c #45484A",
"............",
"++++++++++++",
"++++++++++++",
"++++++++++++",
"@@@@@@@@@@@@",
"@@@@@@@@@@@@",
"############",
"############",
"$$$$$$$$$$$$",
"%%&*%%%%*&%%",
"==-;>==>;,==",
"''')!~{]^'''",
"''''/((_''''",
":::::<<:::::",
"[[[[[[[[[[[[",
"}}}}}}}}}}}}",
"||||||||||||",
"111111111111",
"111111111111",
"222222222222",
"222222222222",
"333333333333",
"453367684833"};
