/* XPM */
static char * 3_xpm[] = {
"12 23 24 1",
" 	c None",
".	c #6D7077",
"+	c #4D4F52",
"@	c #4C4E51",
"#	c #4B4D50",
"$	c #4B4D4F",
"%	c #DBDBDB",
"&	c #4A4C4F",
"*	c #DADBDB",
"=	c #4A4C4E",
"-	c #494B4E",
";	c #494B4D",
">	c #484A4D",
",	c #DADADB",
"'	c #484A4C",
")	c #47494C",
"!	c #47494B",
"~	c #46484A",
"{	c #454749",
"]	c #45474A",
"^	c #464849",
"/	c #464749",
"(	c #454849",
"_	c #45484A",
"............",
"++++++++++++",
"++++++++++++",
"++++++++++++",
"@@@@@@@@@@@@",
"@@@@@@@@@@@@",
"############",
"############",
"$$$$$%%$$$$$",
"&&&&****&&&&",
"===******===",
"--********--",
"------------",
";;********;;",
">>,,,,,,,,>>",
"''''''''''''",
"))))))))))))",
"!!!!!!!!!!!!",
"!!!!!!!!!!!!",
"~~~~~~~~~~~~",
"~~~~~~~~~~~~",
"{{{{{{{{{{{{",
"]^{{/(/_]_{{"};
