/* XPM */
static char * ba_xpm[] = {
"24 23 151 2",
"  	c None",
". 	c #6D7077",
"+ 	c #4D4F52",
"@ 	c #4C4E51",
"# 	c #4D4E52",
"$ 	c #4D4E51",
"% 	c #4C4E52",
"& 	c #4C4F51",
"* 	c #4C4F52",
"= 	c #4C4E50",
"- 	c #4B4E51",
"; 	c #4B4D50",
"> 	c #4C4D51",
", 	c #4B4D51",
"' 	c #4C4D50",
") 	c #494C4E",
"! 	c #36383A",
"~ 	c #262728",
"{ 	c #1E1F20",
"] 	c #37383B",
"^ 	c #494B4F",
"/ 	c #4B4E50",
"( 	c #46474A",
"_ 	c #262628",
": 	c #1B1B1C",
"< 	c #181919",
"[ 	c #161718",
"} 	c #181819",
"| 	c #252628",
"1 	c #4B4D4F",
"2 	c #4A4D50",
"3 	c #494B4D",
"4 	c #1A1A1B",
"5 	c #6F7071",
"6 	c #8D8F91",
"7 	c #8E8F91",
"8 	c #727375",
"9 	c #2D2D2E",
"0 	c #1A1B1C",
"a 	c #262729",
"b 	c #484B4E",
"c 	c #4A4D4F",
"d 	c #4A4C4F",
"e 	c #4B4C4F",
"f 	c #4A4C50",
"g 	c #37393A",
"h 	c #1B1C1D",
"i 	c #838486",
"j 	c #77787A",
"k 	c #6E6F71",
"l 	c #6D6F71",
"m 	c #76787A",
"n 	c #848586",
"o 	c #1C1C1E",
"p 	c #4A4C4E",
"q 	c #28292A",
"r 	c #191A1B",
"s 	c #646566",
"t 	c #67696B",
"u 	c #646669",
"v 	c #646668",
"w 	c #686A6C",
"x 	c #636466",
"y 	c #494B4E",
"z 	c #4A4B4F",
"A 	c #212223",
"B 	c #18191A",
"C 	c #696A6C",
"D 	c #606163",
"E 	c #5F6063",
"F 	c #5F6163",
"G 	c #606064",
"H 	c #696B6C",
"I 	c #4A4B4E",
"J 	c #222324",
"K 	c #19191A",
"L 	c #595C5D",
"M 	c #5B5B5E",
"N 	c #5A5B5E",
"O 	c #5A5C5E",
"P 	c #5B5C5E",
"Q 	c #595A5D",
"R 	c #505254",
"S 	c #2B2C2D",
"T 	c #414244",
"U 	c #555759",
"V 	c #555758",
"W 	c #3F4142",
"X 	c #1B1C1C",
"Y 	c #484B4D",
"Z 	c #494A4D",
"` 	c #515255",
" .	c #3E3F42",
"..	c #1F1F21",
"+.	c #505153",
"@.	c #4F5253",
"#.	c #505253",
"$.	c #1E2020",
"%.	c #3F4042",
"&.	c #505255",
"*.	c #484A4D",
"=.	c #484A4C",
"-.	c #5C5E60",
";.	c #2B2D2E",
">.	c #1E1E20",
",.	c #383A3B",
"'.	c #47494C",
").	c #474A4C",
"!.	c #38393B",
"~.	c #1D1E20",
"{.	c #5B5D60",
"].	c #484B4C",
"^.	c #48494C",
"/.	c #525355",
"(.	c #5D5E60",
"_.	c #2D2E2F",
":.	c #202122",
"<.	c #1C1D1E",
"[.	c #1D1D1E",
"}.	c #202022",
"|.	c #2C2E2F",
"1.	c #5C5E5F",
"2.	c #515355",
"3.	c #474A4D",
"4.	c #474A4B",
"5.	c #545657",
"6.	c #66696A",
"7.	c #484A4B",
"8.	c #303233",
"9.	c #252728",
"0.	c #303133",
"a.	c #666969",
"b.	c #525556",
"c.	c #47494B",
"d.	c #696B6D",
"e.	c #707173",
"f.	c #696C6C",
"g.	c #5D5E61",
"h.	c #46494B",
"i.	c #47484B",
"j.	c #46484B",
"k.	c #46494A",
"l.	c #47494A",
"m.	c #46484A",
"n.	c #47484A",
"o.	c #45474A",
"p.	c #45484A",
"q.	c #464749",
"r.	c #464849",
"s.	c #454749",
"t.	c #454849",
". . . . . . . . . . . . . . . . . . . . . . . . ",
"+ + + + + + + + + + + + + + + + + + + + + + + + ",
"@ # $ % + & # * @ & + % @ # $ % + & # * @ & + % ",
"@ @ @ @ $ @ @ & @ & @ @ @ @ @ @ $ @ @ & @ & @ @ ",
"@ = = @ @ @ @ @ - = ; > @ = = @ @ @ @ @ - = ; > ",
", = , , ' ' ; = ) ! ~ { { ~ ] ^ ' ' ; = / / ; / ",
"' ; ; ; ; ; ; ( _ : < [ [ } : | ( ; ; ; ' ; / ; ",
"; ; 1 2 ; 2 3 ~ 4 ~ 5 6 7 8 9 0 a b 1 ; ; c 1 2 ",
"d d 1 e e f g h ~ i j k l m n ~ o ] c c 1 d e e ",
"d p d d d p q r s t u u u v w x r q d d p d d d ",
") y z p d p A B C D E D F E G H B A ) ) y p y p ",
") p y I I = J K L M N N O P N Q K J = y ) I y y ",
"3 3 y 3 3 R S h T U U U V V U W X S R y 3 y y y ",
"Y 3 3 Y Z `  ...A 1 +.+.@.#.1 $...%.&.Z 3 3 Z Z ",
"Y *.Y *.=.d -.;.>.{ ,.'.).!.{ ~.S {.d Y Z *.].*.",
"=.=.^.).=.=./.(._.:.<.: : [.}.|.1.2.=.=.^.=.3.*.",
"=.'.'.4.4.'.^.5.6.7.8.9.~ 0.^.a.b.'.^.=.).4.=.).",
"c.4.^.'.c.c.c.c.p -.d.e.e.f.g.d c.c.c.c.c.c.'.c.",
"h.c.i.i.j.c.i.c.c.h.c.c.h.c.i.i.j.c.i.c.c.h.c.c.",
"j.k.j.c.h.l.k.m.n.j.k.j.j.k.j.c.h.l.k.m.n.j.k.j.",
"m.j.m.h.m.j.m.m.m.m.m.n.m.j.m.h.m.j.m.m.m.m.m.n.",
"o.m.m.m.p.( m.p.p.( q.p.o.m.m.m.p.( m.p.p.( q.p.",
"o.r.s.s.q.t.q.p.o.p.s.s.o.r.s.s.q.t.q.p.o.p.s.s."};
