/* XPM */
static char * bc_xpm[] = {
"24 23 125 2",
"  	c None",
". 	c #6D7077",
"+ 	c #4D4F52",
"@ 	c #4C4E51",
"# 	c #4D4E52",
"$ 	c #4D4E51",
"% 	c #4C4E52",
"& 	c #4C4F51",
"* 	c #4C4F52",
"= 	c #4C4E50",
"- 	c #4B4E51",
"; 	c #4B4D50",
"> 	c #4C4D51",
", 	c #4B4D51",
"' 	c #4C4D50",
") 	c #494C4E",
"! 	c #323435",
"~ 	c #202123",
"{ 	c #191A1A",
"] 	c #19191B",
"^ 	c #212223",
"/ 	c #323336",
"( 	c #494B4F",
"_ 	c #4B4E50",
": 	c #444649",
"< 	c #1F2021",
"[ 	c #191A1B",
"} 	c #1D1E1F",
"| 	c #1E1F20",
"1 	c #1D1D1F",
"2 	c #4B4D4F",
"3 	c #4A4D50",
"4 	c #494B4D",
"5 	c #1B1C1D",
"6 	c #1A1C1D",
"7 	c #484B4E",
"8 	c #4A4D4F",
"9 	c #4A4C4F",
"0 	c #4B4C4F",
"a 	c #4A4C50",
"b 	c #313334",
"c 	c #F8F8F8",
"d 	c #969696",
"e 	c #929293",
"f 	c #FBFBFB",
"g 	c #202021",
"h 	c #313335",
"i 	c #4A4C4E",
"j 	c #202122",
"k 	c #1C1D1E",
"l 	c #9E9E9E",
"m 	c #FFFFFF",
"n 	c #9B9B9C",
"o 	c #989999",
"p 	c #A7A7A7",
"q 	c #494B4E",
"r 	c #4A4B4F",
"s 	c #18191A",
"t 	c #1E1E20",
"u 	c #A0A1A1",
"v 	c #A9A9A9",
"w 	c #19191A",
"x 	c #4A4B4E",
"y 	c #949495",
"z 	c #A5A6A6",
"A 	c #1E1E1F",
"B 	c #505254",
"C 	c #989899",
"D 	c #9E9F9F",
"E 	c #1C1C1D",
"F 	c #222223",
"G 	c #484B4D",
"H 	c #494A4D",
"I 	c #515255",
"J 	c #37383A",
"K 	c #9A9A9B",
"L 	c #1F1F20",
"M 	c #1E2020",
"N 	c #999A9A",
"O 	c #F9F9F9",
"P 	c #505255",
"Q 	c #484A4D",
"R 	c #484A4C",
"S 	c #5B5D60",
"T 	c #1A1A1C",
"U 	c #5B5D5F",
"V 	c #484B4C",
"W 	c #48494C",
"X 	c #474A4C",
"Y 	c #525355",
"Z 	c #5A5B5D",
"` 	c #1D1E1E",
" .	c #1F2121",
"..	c #595B5C",
"+.	c #515355",
"@.	c #474A4D",
"#.	c #47494C",
"$.	c #474A4B",
"%.	c #545657",
"&.	c #66686A",
"*.	c #3E4040",
"=.	c #232425",
"-.	c #3E3F41",
";.	c #666869",
">.	c #525556",
",.	c #47494B",
"'.	c #5C5E60",
").	c #696B6D",
"!.	c #707173",
"~.	c #696C6C",
"{.	c #5D5E61",
"].	c #46494B",
"^.	c #47484B",
"/.	c #46484B",
"(.	c #46494A",
"_.	c #47494A",
":.	c #46484A",
"<.	c #47484A",
"[.	c #45474A",
"}.	c #45484A",
"|.	c #46474A",
"1.	c #464749",
"2.	c #464849",
"3.	c #454749",
"4.	c #454849",
". . . . . . . . . . . . . . . . . . . . . . . . ",
"+ + + + + + + + + + + + + + + + + + + + + + + + ",
"@ # $ % + & # * @ & + % @ # $ % + & # * @ & + % ",
"@ @ @ @ $ @ @ & @ & @ @ @ @ @ @ $ @ @ & @ & @ @ ",
"@ = = @ @ @ @ @ - = ; > @ = = @ @ @ @ @ - = ; > ",
", = , , ' ' ; = ) ! ~ { ] ^ / ( ' ' ; = _ _ ; _ ",
"' ; ; ; ; ; ; : < [ } | | 1 [ < : ; ; ; ' ; _ ; ",
"; ; 2 3 ; 3 4 < 5 | | | | | | 6 < 7 2 ; ; 8 2 3 ",
"9 9 2 0 0 a b [ | c d | | e f g [ h 8 8 2 9 0 0 ",
"9 i 9 9 9 i j k | l m n o m p | k j 9 9 i 9 9 9 ",
") q r i 9 i s } t < u m m v < | t w ) ) q i q i ",
") i q x x = w } | t y m m z < t A { = q ) x q q ",
"4 4 q 4 4 B ^ k A C m u D m n A E F B q 4 q q q ",
"G 4 4 G H I J w A c K L M N O M w J P H 4 4 H H ",
"G Q G Q R 9 S < T } } } } } } T < U 9 G H Q V Q ",
"R R W X R R Y Z g s 5 } ` 5 s  ...+.R R W R @.Q ",
"R #.#.$.$.#.W %.&.*.=.{ { =.-.;.>.#.W R X $.R X ",
",.$.W #.,.,.,.,.i '.).!.!.~.{.9 ,.,.,.,.,.,.#.,.",
"].,.^.^./.,.^.,.,.].,.,.].,.^.^./.,.^.,.,.].,.,.",
"/.(./.,.]._.(.:.<./.(././.(./.,.]._.(.:.<./.(./.",
":./.:.].:./.:.:.:.:.:.<.:./.:.].:./.:.:.:.:.:.<.",
"[.:.:.:.}.|.:.}.}.|.1.}.[.:.:.:.}.|.:.}.}.|.1.}.",
"[.2.3.3.1.4.1.}.[.}.3.3.[.2.3.3.1.4.1.}.[.}.3.3."};
