/* XPM */
static char * bh_xpm[] = {
"24 23 106 2",
"  	c None",
". 	c #6D7077",
"+ 	c #4D4F52",
"@ 	c #4C4E51",
"# 	c #4D4E52",
"$ 	c #4D4E51",
"% 	c #4C4E52",
"& 	c #4C4F51",
"* 	c #4C4F52",
"= 	c #4C4E50",
"- 	c #4B4E51",
"; 	c #4B4D50",
"> 	c #4C4D51",
", 	c #4B4D51",
"' 	c #4C4D50",
") 	c #494C4E",
"! 	c #323435",
"~ 	c #202123",
"{ 	c #191A1A",
"] 	c #19191B",
"^ 	c #212223",
"/ 	c #323336",
"( 	c #494B4F",
"_ 	c #4B4E50",
": 	c #444649",
"< 	c #1F2021",
"[ 	c #191A1B",
"} 	c #1D1E1F",
"| 	c #1E1F20",
"1 	c #1D1D1F",
"2 	c #4B4D4F",
"3 	c #4A4D50",
"4 	c #494B4D",
"5 	c #1B1C1D",
"6 	c #1A1C1D",
"7 	c #484B4E",
"8 	c #4A4D4F",
"9 	c #4A4C4F",
"0 	c #4B4C4F",
"a 	c #4A4C50",
"b 	c #313334",
"c 	c #313335",
"d 	c #4A4C4E",
"e 	c #202122",
"f 	c #1C1D1E",
"g 	c #494B4E",
"h 	c #4A4B4F",
"i 	c #18191A",
"j 	c #1E1E20",
"k 	c #FFFFFF",
"l 	c #19191A",
"m 	c #4A4B4E",
"n 	c #1E1E1F",
"o 	c #505254",
"p 	c #1C1C1D",
"q 	c #222223",
"r 	c #484B4D",
"s 	c #494A4D",
"t 	c #515255",
"u 	c #37383A",
"v 	c #505255",
"w 	c #484A4D",
"x 	c #484A4C",
"y 	c #5B5D60",
"z 	c #1A1A1C",
"A 	c #5B5D5F",
"B 	c #484B4C",
"C 	c #48494C",
"D 	c #474A4C",
"E 	c #525355",
"F 	c #5A5B5D",
"G 	c #202021",
"H 	c #1D1E1E",
"I 	c #1F2121",
"J 	c #595B5C",
"K 	c #515355",
"L 	c #474A4D",
"M 	c #47494C",
"N 	c #474A4B",
"O 	c #545657",
"P 	c #66686A",
"Q 	c #3E4040",
"R 	c #232425",
"S 	c #3E3F41",
"T 	c #666869",
"U 	c #525556",
"V 	c #47494B",
"W 	c #5C5E60",
"X 	c #696B6D",
"Y 	c #707173",
"Z 	c #696C6C",
"` 	c #5D5E61",
" .	c #46494B",
"..	c #47484B",
"+.	c #46484B",
"@.	c #46494A",
"#.	c #47494A",
"$.	c #46484A",
"%.	c #47484A",
"&.	c #45474A",
"*.	c #45484A",
"=.	c #46474A",
"-.	c #464749",
";.	c #464849",
">.	c #454749",
",.	c #454849",
". . . . . . . . . . . . . . . . . . . . . . . . ",
"+ + + + + + + + + + + + + + + + + + + + + + + + ",
"@ # $ % + & # * @ & + % @ # $ % + & # * @ & + % ",
"@ @ @ @ $ @ @ & @ & @ @ @ @ @ @ $ @ @ & @ & @ @ ",
"@ = = @ @ @ @ @ - = ; > @ = = @ @ @ @ @ - = ; > ",
", = , , ' ' ; = ) ! ~ { ] ^ / ( ' ' ; = _ _ ; _ ",
"' ; ; ; ; ; ; : < [ } | | 1 [ < : ; ; ; ' ; _ ; ",
"; ; 2 3 ; 3 4 < 5 | | | | | | 6 < 7 2 ; ; 8 2 3 ",
"9 9 2 0 0 a b [ | | | | | | | | [ c 8 8 2 9 0 0 ",
"9 d 9 9 9 d e f | | | | | | | | f e 9 9 d 9 9 9 ",
") g h d 9 d i } j k k k k k k | j l ) ) g d g d ",
") d g m m = l } | k k k k k k j n { = g ) m g g ",
"4 4 g 4 4 o ^ f n j j j n n j n p q o g 4 g g g ",
"r 4 4 r s t u l n n n n } n n } l u v s 4 4 s s ",
"r w r w x 9 y < z } } } } } } z < A 9 r s w B w ",
"x x C D x x E F G i 5 } H 5 i I J K x x C x L w ",
"x M M N N M C O P Q R { { R S T U M C x D N x D ",
"V N C M V V V V d W X Y Y Z ` 9 V V V V V V M V ",
" .V ....+.V ..V V  .V V  .V ....+.V ..V V  .V V ",
"+.@.+.V  .#.@.$.%.+.@.+.+.@.+.V  .#.@.$.%.+.@.+.",
"$.+.$. .$.+.$.$.$.$.$.%.$.+.$. .$.+.$.$.$.$.$.%.",
"&.$.$.$.*.=.$.*.*.=.-.*.&.$.$.$.*.=.$.*.*.=.-.*.",
"&.;.>.>.-.,.-.*.&.*.>.>.&.;.>.>.-.,.-.*.&.*.>.>."};
