/* XPM */
static char * bi_xpm[] = {
"24 23 136 2",
"  	c None",
". 	c #6D7077",
"+ 	c #4D4F52",
"@ 	c #4C4E51",
"# 	c #4D4E52",
"$ 	c #4D4E51",
"% 	c #4C4E52",
"& 	c #4C4F51",
"* 	c #4C4F52",
"= 	c #4C4E50",
"- 	c #4B4E51",
"; 	c #4B4D50",
"> 	c #4C4D51",
", 	c #4B4D51",
"' 	c #4C4D50",
") 	c #4A4D4F",
"! 	c #3E4142",
"~ 	c #343537",
"{ 	c #2F3132",
"] 	c #2F3033",
"^ 	c #353637",
"/ 	c #3E4043",
"( 	c #4A4C50",
"_ 	c #4B4E50",
": 	c #48494C",
"< 	c #2D2E30",
"[ 	c #2B2D2E",
"} 	c #2A2B2D",
"| 	c #2B2B2D",
"1 	c #2B2C2E",
"2 	c #4B4D4F",
"3 	c #4A4D50",
"4 	c #4A4C4E",
"5 	c #323435",
"6 	c #595A5C",
"7 	c #6A6D6F",
"8 	c #6B6D6F",
"9 	c #5B5D5F",
"0 	c #363839",
"a 	c #2C2E30",
"b 	c #343638",
"c 	c #494C4F",
"d 	c #4A4C4F",
"e 	c #4B4C4F",
"f 	c #3E4042",
"g 	c #2D2F30",
"h 	c #333435",
"i 	c #656669",
"j 	c #5C5D60",
"k 	c #57575A",
"l 	c #56575A",
"m 	c #5B5D60",
"n 	c #666769",
"o 	c #2E2F30",
"p 	c #353638",
"q 	c #2C2D2F",
"r 	c #545557",
"s 	c #535558",
"t 	c #515355",
"u 	c #515354",
"v 	c #545558",
"w 	c #494C4E",
"x 	c #494B4E",
"y 	c #4A4B4F",
"z 	c #303234",
"A 	c #2A2C2D",
"B 	c #55575A",
"C 	c #505254",
"D 	c #4F5154",
"E 	c #4F5254",
"F 	c #505155",
"G 	c #56585A",
"H 	c #313234",
"I 	c #4A4B4E",
"J 	c #313334",
"K 	c #4D5052",
"L 	c #4E4F52",
"M 	c #4E5052",
"N 	c #2C2C2E",
"O 	c #494B4D",
"P 	c #4D4F51",
"Q 	c #363739",
"R 	c #414345",
"S 	c #404143",
"T 	c #2C2E2F",
"U 	c #484B4D",
"V 	c #494A4D",
"W 	c #424346",
"X 	c #2F3032",
"Y 	c #303133",
"Z 	c #484A4B",
"` 	c #47494B",
" .	c #2E2F31",
"..	c #484A4D",
"+.	c #484A4C",
"@.	c #36383A",
"#.	c #3E4041",
"$.	c #47484B",
"%.	c #2E3031",
"&.	c #545659",
"*.	c #484B4C",
"=.	c #474A4C",
"-.	c #555759",
";.	c #37383A",
">.	c #2C2D2E",
",.	c #2D2E2F",
"'.	c #37393A",
").	c #545658",
"!.	c #474A4D",
"~.	c #47494C",
"{.	c #474A4B",
"].	c #4F5153",
"^.	c #5A5D5F",
"/.	c #393A3C",
"(.	c #323436",
"_.	c #333436",
":.	c #383A3C",
"<.	c #5A5D5E",
"[.	c #4E5152",
"}.	c #535557",
"|.	c #5C5E61",
"1.	c #606163",
"2.	c #5C5F60",
"3.	c #46494B",
"4.	c #46484B",
"5.	c #46494A",
"6.	c #47494A",
"7.	c #46484A",
"8.	c #47484A",
"9.	c #45474A",
"0.	c #45484A",
"a.	c #46474A",
"b.	c #464749",
"c.	c #464849",
"d.	c #454749",
"e.	c #454849",
". . . . . . . . . . . . . . . . . . . . . . . . ",
"+ + + + + + + + + + + + + + + + + + + + + + + + ",
"@ # $ % + & # * @ & + % @ # $ % + & # * @ & + % ",
"@ @ @ @ $ @ @ & @ & @ @ @ @ @ @ $ @ @ & @ & @ @ ",
"@ = = @ @ @ @ @ - = ; > @ = = @ @ @ @ @ - = ; > ",
", = , , ' ' ; = ) ! ~ { ] ^ / ( ' ' ; = _ _ ; _ ",
"' ; ; ; ; ; ; : ~ < [ } | 1 < ~ : ; ; ; ' ; _ ; ",
"; ; 2 3 ; 3 4 ~ < 5 6 7 8 9 0 a b c 2 ; ; ) 2 3 ",
"d d 2 e e ( f g h i j k l m n h o / ) ) 2 d e e ",
"d 4 d d d 4 p q r s t t t u s v q p d d 4 d d d ",
"w x y 4 d 4 z A B C D C E D F G 1 H w w x 4 x 4 ",
"w 4 x I I 2 J 1 K L + + K M + L N J 2 x w I x x ",
"O O x O O P Q a R @ @ @ = = @ S T 0 P x O x x x ",
"U O O U V $ W X Y Z e e ) 2 `  .X W $ V O O V V ",
"U ..U ..+.x v @. . .#.$.` f %. .Q &.x U V ..*...",
"+.+.: =.+.+.M -.;.{ a q >.,.X '.).P +.+.: +.!...",
"+.~.~.{.{.~.: ].^.{./.(._.:.~.<.[.~.: +.=.{.+.=.",
"` {.: ~.` ` ` ` O }.|.1.1.2.v x ` ` ` ` ` ` ~.` ",
"3.` $.$.4.` $.` ` 3.` ` 3.` $.$.4.` $.` ` 3.` ` ",
"4.5.4.` 3.6.5.7.8.4.5.4.4.5.4.` 3.6.5.7.8.4.5.4.",
"7.4.7.3.7.4.7.7.7.7.7.8.7.4.7.3.7.4.7.7.7.7.7.8.",
"9.7.7.7.0.a.7.0.0.a.b.0.9.7.7.7.0.a.7.0.0.a.b.0.",
"9.c.d.d.b.e.b.0.9.0.d.d.9.c.d.d.b.e.b.0.9.0.d.d."};
