/* XPM */
static char * bm_xpm[] = {
"24 23 119 2",
"  	c None",
". 	c #6D7077",
"+ 	c #4D4F52",
"@ 	c #4C4E51",
"# 	c #4D4E52",
"$ 	c #4D4E51",
"% 	c #4C4E52",
"& 	c #4C4F51",
"* 	c #4C4F52",
"= 	c #4C4E50",
"- 	c #4B4E51",
"; 	c #4B4D50",
"> 	c #4C4D51",
", 	c #4B4D51",
"' 	c #4C4D50",
") 	c #494C4E",
"! 	c #323435",
"~ 	c #202123",
"{ 	c #191A1A",
"] 	c #19191B",
"^ 	c #212223",
"/ 	c #323336",
"( 	c #494B4F",
"_ 	c #4B4E50",
": 	c #444649",
"< 	c #1F2021",
"[ 	c #191A1B",
"} 	c #1D1E1F",
"| 	c #1E1F20",
"1 	c #1D1D1F",
"2 	c #4B4D4F",
"3 	c #4A4D50",
"4 	c #494B4D",
"5 	c #1B1C1D",
"6 	c #1A1C1D",
"7 	c #484B4E",
"8 	c #4A4D4F",
"9 	c #4A4C4F",
"0 	c #4B4C4F",
"a 	c #4A4C50",
"b 	c #313334",
"c 	c #232324",
"d 	c #B7B7B7",
"e 	c #FFFFFF",
"f 	c #D2D2D3",
"g 	c #313335",
"h 	c #4A4C4E",
"i 	c #202122",
"j 	c #1C1D1E",
"k 	c #222324",
"l 	c #494B4E",
"m 	c #4A4B4F",
"n 	c #18191A",
"o 	c #BDBDBD",
"p 	c #242526",
"q 	c #B0B1B1",
"r 	c #1E1E20",
"s 	c #19191A",
"t 	c #4A4B4E",
"u 	c #BCBDBD",
"v 	c #212122",
"w 	c #1E1E1F",
"x 	c #505254",
"y 	c #1F2020",
"z 	c #222323",
"A 	c #1C1C1D",
"B 	c #222223",
"C 	c #484B4D",
"D 	c #494A4D",
"E 	c #515255",
"F 	c #37383A",
"G 	c #D5D5D5",
"H 	c #B6B7B7",
"I 	c #505255",
"J 	c #484A4D",
"K 	c #484A4C",
"L 	c #5B5D60",
"M 	c #1A1A1C",
"N 	c #5B5D5F",
"O 	c #484B4C",
"P 	c #48494C",
"Q 	c #474A4C",
"R 	c #525355",
"S 	c #5A5B5D",
"T 	c #202021",
"U 	c #1D1E1E",
"V 	c #1F2121",
"W 	c #595B5C",
"X 	c #515355",
"Y 	c #474A4D",
"Z 	c #47494C",
"` 	c #474A4B",
" .	c #545657",
"..	c #66686A",
"+.	c #3E4040",
"@.	c #232425",
"#.	c #3E3F41",
"$.	c #666869",
"%.	c #525556",
"&.	c #47494B",
"*.	c #5C5E60",
"=.	c #696B6D",
"-.	c #707173",
";.	c #696C6C",
">.	c #5D5E61",
",.	c #46494B",
"'.	c #47484B",
").	c #46484B",
"!.	c #46494A",
"~.	c #47494A",
"{.	c #46484A",
"].	c #47484A",
"^.	c #45474A",
"/.	c #45484A",
"(.	c #46474A",
"_.	c #464749",
":.	c #464849",
"<.	c #454749",
"[.	c #454849",
". . . . . . . . . . . . . . . . . . . . . . . . ",
"+ + + + + + + + + + + + + + + + + + + + + + + + ",
"@ # $ % + & # * @ & + % @ # $ % + & # * @ & + % ",
"@ @ @ @ $ @ @ & @ & @ @ @ @ @ @ $ @ @ & @ & @ @ ",
"@ = = @ @ @ @ @ - = ; > @ = = @ @ @ @ @ - = ; > ",
", = , , ' ' ; = ) ! ~ { ] ^ / ( ' ' ; = _ _ ; _ ",
"' ; ; ; ; ; ; : < [ } | | 1 [ < : ; ; ; ' ; _ ; ",
"; ; 2 3 ; 3 4 < 5 | | | | | | 6 < 7 2 ; ; 8 2 3 ",
"9 9 2 0 0 a b [ | | c d e e f | [ g 8 8 2 9 0 0 ",
"9 h 9 9 9 h i j | k | k d e e | j i 9 9 h 9 9 9 ",
") l m h 9 h n } < o p | i q e | r s ) ) l h l h ",
") h l t t = s } < e u p | v q r w { = l ) t l l ",
"4 4 l 4 4 x ^ j y e e d z w k w A B x l 4 l l l ",
"C 4 4 C D E F s w G e e H z w } s F I D 4 4 D D ",
"C J C J K 9 L < M } } } } } } M < N 9 C D J O J ",
"K K P Q K K R S T n 5 } U 5 n V W X K K P K Y J ",
"K Z Z ` ` Z P  ...+.@.{ { @.#.$.%.Z P K Q ` K Q ",
"&.` P Z &.&.&.&.h *.=.-.-.;.>.9 &.&.&.&.&.&.Z &.",
",.&.'.'.).&.'.&.&.,.&.&.,.&.'.'.).&.'.&.&.,.&.&.",
").!.).&.,.~.!.{.].).!.).).!.).&.,.~.!.{.].).!.).",
"{.).{.,.{.).{.{.{.{.{.].{.).{.,.{.).{.{.{.{.{.].",
"^.{.{.{./.(.{././.(._./.^.{.{.{./.(.{././.(._./.",
"^.:.<.<._.[._./.^./.<.<.^.:.<.<._.[._./.^./.<.<."};
