/* XPM */
static char * 01_xpm[] = {
"23 23 66 1",
" 	c None",
".	c #6D7077",
"+	c #4D4F52",
"@	c #4C4E51",
"#	c #4D4E52",
"$	c #4D4E51",
"%	c #4C4F51",
"&	c #4C4E52",
"*	c #4C4E50",
"=	c #4B4D50",
"-	c #4C4D51",
";	c #4B4D51",
">	c #4B4E50",
",	c #4C4D50",
"'	c #4B4D4F",
")	c #4A4D4F",
"!	c #4A4D50",
"~	c #4A4C4F",
"{	c #4B4C4F",
"]	c #4A4C4E",
"^	c #A1A2A3",
"/	c #6C6E70",
"(	c #494C4E",
"_	c #494B4E",
":	c #4A4B4F",
"<	c #C9CACA",
"[	c #FFFFFF",
"}	c #5D5E60",
"|	c #C9C9CA",
"1	c #B9BABB",
"2	c #FBFBFB",
"3	c #686A6C",
"4	c #66676A",
"5	c #FAFAFA",
"6	c #BDBEBF",
"7	c #4A4B4E",
"8	c #494B4D",
"9	c #C5C6C7",
"0	c #F8F8F8",
"a	c #F9F9F9",
"b	c #C6C7C8",
"c	c #484B4D",
"d	c #C7C7C8",
"e	c #494A4D",
"f	c #484A4D",
"g	c #484B4C",
"h	c #484A4C",
"i	c #48494C",
"j	c #474A4D",
"k	c #47494C",
"l	c #474A4B",
"m	c #474A4C",
"n	c #47494B",
"o	c #46494B",
"p	c #47484B",
"q	c #46484B",
"r	c #46494A",
"s	c #46484A",
"t	c #47484A",
"u	c #45474A",
"v	c #454749",
"w	c #46474A",
"x	c #464749",
"y	c #45484A",
"z	c #464849",
"A	c #454849",
".......................",
"+++++++++++++++++++++++",
"@@##$++++++++++++%%++&&",
"@@@@@++++++++++++%%@@@@",
"@@***@@@@@@@@@@@@**==--",
";;**;@@@@@@@@@@@@>>==>>",
",,=================>>==",
"===='============))''!!",
"~~~~'''''''''''''~~{{{{",
"~~]]~~~^/~~~~/^~~~~~~~~",
"((__:]]<[}]]}[|]]]]__]]",
"((]]____123456___77____",
"8888_____90ab__________",
"cc8888888]dd]888888eeee",
"ccffcffffffffffffffggff",
"hhhhihhhhhhhhhhhhhhjjff",
"hhkkkkkkkkkkkkkkkllhhmm",
"nnllinnnnnnnnnnnnnnkknn",
"oonnpnnnnnnnnnnnnoonnnn",
"qqrrqssssssssssssqqrrqq",
"ssqqssssssssssssssssstt",
"uusssvvvvvvvvvvvvwwxxyy",
"uuzzvuzvvxAxyuyvvyyvvvv"};
