/* XPM */
static char * 02_xpm[] = {
"23 23 65 1",
" 	c None",
".	c #6D7077",
"+	c #4D4F52",
"@	c #4C4E51",
"#	c #4D4E52",
"$	c #4D4E51",
"%	c #4C4F51",
"&	c #4C4E52",
"*	c #4C4E50",
"=	c #4B4D50",
"-	c #4C4D51",
";	c #4B4D51",
">	c #4B4E50",
",	c #4C4D50",
"'	c #4B4D4F",
")	c #4A4D4F",
"!	c #4A4D50",
"~	c #4A4C4F",
"{	c #4B4C4F",
"]	c #4A4C4E",
"^	c #757679",
"/	c #5B5C5F",
"(	c #494C4E",
"_	c #494B4E",
":	c #4A4B4F",
"<	c #898B8C",
"[	c #A4A5A6",
"}	c #535557",
"|	c #898A8B",
"1	c #818284",
"2	c #A2A3A4",
"3	c #585A5D",
"4	c #57595B",
"5	c #A1A2A4",
"6	c #828486",
"7	c #4A4B4E",
"8	c #494B4D",
"9	c #87888A",
"0	c #A0A1A3",
"a	c #87898B",
"b	c #484B4D",
"c	c #87898A",
"d	c #494A4D",
"e	c #484A4D",
"f	c #484B4C",
"g	c #484A4C",
"h	c #48494C",
"i	c #474A4D",
"j	c #47494C",
"k	c #474A4B",
"l	c #474A4C",
"m	c #47494B",
"n	c #46494B",
"o	c #47484B",
"p	c #46484B",
"q	c #46494A",
"r	c #46484A",
"s	c #47484A",
"t	c #45474A",
"u	c #454749",
"v	c #46474A",
"w	c #464749",
"x	c #45484A",
"y	c #464849",
"z	c #454849",
".......................",
"+++++++++++++++++++++++",
"@@##$++++++++++++%%++&&",
"@@@@@++++++++++++%%@@@@",
"@@***@@@@@@@@@@@@**==--",
";;**;@@@@@@@@@@@@>>==>>",
",,=================>>==",
"===='============))''!!",
"~~~~'''''''''''''~~{{{{",
"~~]]~~~^/~~~~/^~~~~~~~~",
"((__:]]<[}]]}[|]]]]__]]",
"((]]____123456___77____",
"8888_____900a__________",
"bb88888888cc8888888dddd",
"bbeebeeeeeeeeeeeeeeffee",
"gggghggggggggggggggiiee",
"ggjjjjjjjjjjjjjjjkkggll",
"mmkkhmmmmmmmmmmmmmmjjmm",
"nnmmommmmmmmmmmmmnnmmmm",
"ppqqprrrrrrrrrrrrppqqpp",
"rrpprrrrrrrrrrrrrrrrrss",
"ttrrruuuuuuuuuuuuvvwwxx",
"ttyyutyuuwzwxtxuuxxuuuu"};
