/* XPM */
static char * 03_xpm[] = {
"23 23 52 1",
" 	c None",
".	c #6D7077",
"+	c #4D4F52",
"@	c #4C4E51",
"#	c #4D4E52",
"$	c #4D4E51",
"%	c #4C4F51",
"&	c #4C4E52",
"*	c #4C4E50",
"=	c #4B4D50",
"-	c #4C4D51",
";	c #4B4D51",
">	c #4B4E50",
",	c #4C4D50",
"'	c #4B4D4F",
")	c #4A4D4F",
"!	c #4A4D50",
"~	c #4A4C4F",
"{	c #DBDBDB",
"]	c #4B4C4F",
"^	c #4A4C4E",
"/	c #DADBDB",
"(	c #494C4E",
"_	c #494B4E",
":	c #4A4B4F",
"<	c #4A4B4E",
"[	c #494B4D",
"}	c #484B4D",
"|	c #494A4D",
"1	c #484A4D",
"2	c #DADADB",
"3	c #484B4C",
"4	c #484A4C",
"5	c #48494C",
"6	c #474A4D",
"7	c #47494C",
"8	c #474A4B",
"9	c #474A4C",
"0	c #47494B",
"a	c #46494B",
"b	c #47484B",
"c	c #46484B",
"d	c #46494A",
"e	c #46484A",
"f	c #47484A",
"g	c #45474A",
"h	c #454749",
"i	c #46474A",
"j	c #464749",
"k	c #45484A",
"l	c #464849",
"m	c #454849",
".......................",
"+++++++++++++++++++++++",
"@@##$++++++++++++%%++&&",
"@@@@@++++++++++++%%@@@@",
"@@***@@@@@@@@@@@@**==--",
";;**;@@@@@@@@@@@@>>==>>",
",,=================>>==",
"===='============))''!!",
"~~~~''''''{{'''''~~]]]]",
"~~^^~~~~~////~~~~~~~~~~",
"((__:^^^//////^^^^^__^^",
"((^^___////////__<<____",
"[[[[___________________",
"}}[[[[[////////[[[[||||",
"}}11}112222222211113311",
"44445444444444444446611",
"44777777777777777884499",
"00885000000000000007700",
"aa00b000000000000aa0000",
"ccddceeeeeeeeeeeeccddcc",
"eecceeeeeeeeeeeeeeeeeff",
"ggeeehhhhhhhhhhhhiijjkk",
"ggllhglhhjmjkgkhhkkhhhh"};
