/* XPM */
static char * 04_xpm[] = {
"23 23 54 1",
" 	c None",
".	c #6D7077",
"+	c #4D4F52",
"@	c #4C4E51",
"#	c #4D4E52",
"$	c #4D4E51",
"%	c #4C4F51",
"&	c #4C4E52",
"*	c #4C4E50",
"=	c #4B4D50",
"-	c #4C4D51",
";	c #4B4D51",
">	c #4B4E50",
",	c #4C4D50",
"'	c #4B4D4F",
")	c #4A4D4F",
"!	c #4A4D50",
"~	c #4A4C4F",
"{	c #939495",
"]	c #4B4C4F",
"^	c #4A4C4E",
"/	c #929395",
"(	c #494C4E",
"_	c #494B4E",
":	c #4A4B4F",
"<	c #929394",
"[	c #919394",
"}	c #4A4B4E",
"|	c #494B4D",
"1	c #484B4D",
"2	c #494A4D",
"3	c #484A4D",
"4	c #919294",
"5	c #484B4C",
"6	c #484A4C",
"7	c #48494C",
"8	c #474A4D",
"9	c #47494C",
"0	c #474A4B",
"a	c #474A4C",
"b	c #47494B",
"c	c #46494B",
"d	c #47484B",
"e	c #46484B",
"f	c #46494A",
"g	c #46484A",
"h	c #47484A",
"i	c #45474A",
"j	c #454749",
"k	c #46474A",
"l	c #464749",
"m	c #45484A",
"n	c #464849",
"o	c #454849",
".......................",
"+++++++++++++++++++++++",
"@@##$++++++++++++%%++&&",
"@@@@@++++++++++++%%@@@@",
"@@***@@@@@@@@@@@@**==--",
";;**;@@@@@@@@@@@@>>==>>",
",,=================>>==",
"===='============))''!!",
"~~~~''''''{{'''''~~]]]]",
"~~^^~~~~~////~~~~~~~~~~",
"((__:^^^<<<<<<^^^^^__^^",
"((^^___[[[[[[[[__}}____",
"||||___________________",
"11|||||[[[[[[[[||||2222",
"11331334444444433335533",
"66667666666666666668833",
"669999999999999990066aa",
"bb007bbbbbbbbbbbbbb99bb",
"ccbbdbbbbbbbbbbbbccbbbb",
"eeffeggggggggggggeeffee",
"ggeeggggggggggggggggghh",
"iigggjjjjjjjjjjjjkkllmm",
"iinnjinjjlolmimjjmmjjjj"};
