/* XPM */
static char * 05_xpm[] = {
"23 23 53 1",
" 	c None",
".	c #6D7077",
"+	c #4D4F52",
"@	c #4C4E51",
"#	c #4D4E52",
"$	c #4D4E51",
"%	c #4C4F51",
"&	c #4C4E52",
"*	c #4C4E50",
"=	c #4B4D50",
"-	c #4C4D51",
";	c #4B4D51",
">	c #4B4E50",
",	c #4C4D50",
"'	c #4B4D4F",
")	c #DBDBDC",
"!	c #4A4D4F",
"~	c #4A4D50",
"{	c #4A4C4F",
"]	c #DBDBDB",
"^	c #4B4C4F",
"/	c #4A4C4E",
"(	c #DADBDB",
"_	c #494C4E",
":	c #494B4E",
"<	c #4A4B4F",
"[	c #4A4B4E",
"}	c #494B4D",
"|	c #484B4D",
"1	c #494A4D",
"2	c #484A4D",
"3	c #DADADB",
"4	c #484B4C",
"5	c #484A4C",
"6	c #48494C",
"7	c #474A4D",
"8	c #47494C",
"9	c #474A4B",
"0	c #474A4C",
"a	c #47494B",
"b	c #46494B",
"c	c #47484B",
"d	c #46484B",
"e	c #46494A",
"f	c #46484A",
"g	c #47484A",
"h	c #45474A",
"i	c #454749",
"j	c #46474A",
"k	c #464749",
"l	c #45484A",
"m	c #464849",
"n	c #454849",
".......................",
"+++++++++++++++++++++++",
"@@##$++++++++++++%%++&&",
"@@@@@++++++++++++%%@@@@",
"@@***@@@@@@@@@@@@**==--",
";;**;@@@@@@@@@@@@>>==>>",
",,=================>>==",
"===='=====))=====!!''~~",
"{{{{'''''']]'''''{{^^^^",
"{{//{{{{{{(({{{{{{{{{{{",
"__::<//((((((((////:://",
"__//:::((((((((::[[::::",
"}}}}::::::((:::::::::::",
"||}}}}}}}}((}}}}}}}1111",
"||22|222223322222224422",
"55556555555555555557722",
"55888888888888888995500",
"aa996aaaaaaaaaaaaaa88aa",
"bbaacaaaaaaaaaaaabbaaaa",
"ddeedffffffffffffddeedd",
"ffddfffffffffffffffffgg",
"hhfffiiiiiiiiiiiijjkkll",
"hhmmihmiiknklhliilliiii"};
