/* XPM */
static char * 06_xpm[] = {
"23 23 55 1",
" 	c None",
".	c #6D7077",
"+	c #4D4F52",
"@	c #4C4E51",
"#	c #4D4E52",
"$	c #4D4E51",
"%	c #4C4F51",
"&	c #4C4E52",
"*	c #4C4E50",
"=	c #4B4D50",
"-	c #4C4D51",
";	c #4B4D51",
">	c #4B4E50",
",	c #4C4D50",
"'	c #4B4D4F",
")	c #939496",
"!	c #4A4D4F",
"~	c #4A4D50",
"{	c #4A4C4F",
"]	c #939495",
"^	c #4B4C4F",
"/	c #4A4C4E",
"(	c #929395",
"_	c #494C4E",
":	c #494B4E",
"<	c #4A4B4F",
"[	c #929394",
"}	c #919394",
"|	c #4A4B4E",
"1	c #494B4D",
"2	c #484B4D",
"3	c #494A4D",
"4	c #484A4D",
"5	c #919294",
"6	c #484B4C",
"7	c #484A4C",
"8	c #48494C",
"9	c #474A4D",
"0	c #47494C",
"a	c #474A4B",
"b	c #474A4C",
"c	c #47494B",
"d	c #46494B",
"e	c #47484B",
"f	c #46484B",
"g	c #46494A",
"h	c #46484A",
"i	c #47484A",
"j	c #45474A",
"k	c #454749",
"l	c #46474A",
"m	c #464749",
"n	c #45484A",
"o	c #464849",
"p	c #454849",
".......................",
"+++++++++++++++++++++++",
"@@##$++++++++++++%%++&&",
"@@@@@++++++++++++%%@@@@",
"@@***@@@@@@@@@@@@**==--",
";;**;@@@@@@@@@@@@>>==>>",
",,=================>>==",
"===='=====))=====!!''~~",
"{{{{'''''']]'''''{{^^^^",
"{{//{{{{{{(({{{{{{{{{{{",
"__::<//[[[[[[[[////:://",
"__//:::}}}}}}}}::||::::",
"1111::::::}}:::::::::::",
"2211111111}}11111113333",
"22442444445544444446644",
"77778777777777777779944",
"77000000000000000aa77bb",
"ccaa8cccccccccccccc00cc",
"ddcceccccccccccccddcccc",
"ffggfhhhhhhhhhhhhffggff",
"hhffhhhhhhhhhhhhhhhhhii",
"jjhhhkkkkkkkkkkkkllmmnn",
"jjookjokkmpmnjnkknnkkkk"};
