/* XPM */
static char * title_xpm[] = {
"12 23 53 1",
" 	c None",
".	c #6D7077",
"+	c #4D4F52",
"@	c #4C4E51",
"#	c #4D4E52",
"$	c #4D4E51",
"%	c #4C4E52",
"&	c #4C4F51",
"*	c #4C4F52",
"=	c #4C4E50",
"-	c #4B4E51",
";	c #4B4D50",
">	c #4C4D51",
",	c #4B4D51",
"'	c #4C4D50",
")	c #4B4E50",
"!	c #4B4D4F",
"~	c #4A4D50",
"{	c #4A4D4F",
"]	c #4A4C4F",
"^	c #4B4C4F",
"/	c #4A4C50",
"(	c #4A4C4E",
"_	c #494C4E",
":	c #494B4E",
"<	c #4A4B4F",
"[	c #4A4B4E",
"}	c #494B4D",
"|	c #484B4D",
"1	c #494A4D",
"2	c #484A4D",
"3	c #484A4C",
"4	c #484B4C",
"5	c #48494C",
"6	c #474A4C",
"7	c #474A4D",
"8	c #47494C",
"9	c #474A4B",
"0	c #47494B",
"a	c #46494B",
"b	c #47484B",
"c	c #46484B",
"d	c #46494A",
"e	c #47494A",
"f	c #46484A",
"g	c #47484A",
"h	c #45474A",
"i	c #45484A",
"j	c #46474A",
"k	c #464749",
"l	c #464849",
"m	c #454749",
"n	c #454849",
"............",
"++++++++++++",
"@#$%+&#*@&+%",
"@@@@$@@&@&@@",
"@==@@@@@-=;>",
",=,,'';=));)",
"';;;;;;;';);",
";;!~;~!;;{!~",
"]]!^^/{{!]^^",
"](]]](]](]]]",
"_:<(](__:(:(",
"_(:[[((:_[::",
"}}:}}}}:}:::",
"|}}|1121}}11",
"|2|2322|1242",
"335633335372",
"388998536936",
"095800000080",
"a0bbc0b00a00",
"cdc0aedfgcdc",
"fcfafcfffffg",
"hfffijfiijki",
"hlmmknkihimm"};
