/* XPM */
static char * unsel_xpm[] = {
"9 9 2 1",
" 	c #EFEFEF",
".	c #303030",
"         ",
" ....... ",
" ....... ",
" ....... ",
" ....... ",
" ....... ",
" ....... ",
" ....... ",
"         "};
