/* XPM */
static char * checkbox_checked_xpm[] = {
"16 16 43 1",
" 	c None",
".	c #0E6CFF",
"+	c #0E6BFF",
"@	c #0E69FF",
"#	c #0E6BFF",
"$	c #0D6BFF",
"%	c #0F6BFF",
"&	c #0D67F5",
"*	c #0E67F6",
"=	c #0E68F8",
"-	c #0E68F9",
";	c #0E69FA",
">	c #0E6BFE",
",	c #0E6BFF",
"'	c #1057C9",
")	c #106CFF",
"!	c #1157C7",
"~	c #136DFD",
"{	c #136DFE",
"]	c #146EFE",
"^	c #1871FD",
"/	c #1E73FB",
"(	c #2262C9",
"_	c #2271F0",
":	c #2477FA",
"<	c #2665CA",
"[	c #2E69C7",
"}	c #326BC7",
"|	c #3781F6",
"1	c #C2D4F2",
"2	c #C2D5F3",
"3	c #C3D5F3",
"4	c #C9DAF4",
"5	c #CDDCF4",
"6	c #D7DFEC",
"7	c #D9E1ED",
"8	c #DAE2EF",
"9	c #DEE8F8",
"0	c #E2E8F1",
"a	c #E5EAF2",
"b	c #E8ECF4",
"c	c #FBFCFE",
"d	c #FFFFFF",
"                ",
"  %,,,,,,,,,,$  ",
" $,,,,,,,,,,,,# ",
" ,,,,,,,,,,,,,, ",
" ,,,,,,,,,{:,,, ",
" ,,,,,,,,^2c|,, ",
" ,,,),,,^1da_,, ",
" ,,]94/^1da[;,, ",
" ,,~8d53da[*,,, ",
" ,,>(6ddb}*,,,, ",
" ,,,-<70[&,,,,, ",
" ,,,,='!*,,,,,, ",
" ,,,,,,,,,,,,,, ",
" $,,,,,,,,,,,,# ",
"  $,,,,,,,,,,#  ",
"                "};
