/* XPM */
static char * checkbox_unchecked_xpm[] = {
"16 16 3 1",
" 	c None",
".	c #E3E3E3",
"+	c #2C2C2C",
"                ",
"  ............  ",
" ..++++++++++.. ",
" .++++++++++++. ",
" .++++++++++++. ",
" .++++++++++++. ",
" .++++++++++++. ",
" .++++++++++++. ",
" .++++++++++++. ",
" .++++++++++++. ",
" .++++++++++++. ",
" .++++++++++++. ",
" .++++++++++++. ",
" ..++++++++++.. ",
"  ............  ",
"                "};
