/* XPM */
static char *dummy[]={
"1 16 4 1",
". c #3c3c3c",
"# c #454545",
"a c #cccccc",
"b c #cecece",
".",
".",
".",
".",
".",
".",
".",
".",
".",
".",
"#",
"a",
"b",
"b",
"b",
"b"};
