/* XPM */
static char *dummy[]={
"24 54 43 1",
". c #0f0f0f",
"I c #27080b",
"y c #28080b",
"M c #59222d",
"r c #5b222c",
"o c #5c222d",
"h c #673037",
"e c #693137",
"d c #6a3137",
"J c #7f2531",
"B c #802530",
"n c #812430",
"i c #822430",
"g c #933b40",
"f c #943b3f",
"c c #963b40",
"# c #973b40",
"D c #af3839",
"z c #b1393a",
"A c #b2393a",
"E c #b43a3b",
"C c #b53b3c",
"v c #c13f40",
"N c #c8333d",
"F c #c8343d",
"m c #c9343d",
"j c #ca343d",
"u c #d94748",
"w c #da4849",
"K c #e13b42",
"x c #e23b42",
"q c #e23c43",
"p c #e33b42",
"H c #e33b43",
"O c #e33c43",
"k c #e43b43",
"l c #e43c43",
"G c #e43c44",
"a c #ed5353",
"t c #ee4c4e",
"L c #ee4c4f",
"s c #ee4f51",
"b c #ee5353",
"........................",
"........................",
"........................",
"........................",
"........................",
"........................",
".........#abbac.........",
".......dbbbbbbbbe.......",
"......dbbbbbbbbbbe......",
"......bbbbbbbbbbbb......",
".....#bbbbbbbbbbbbf.....",
".....abbbbbbbbbbbba.....",
".....bbbbbbbbbbbbbb.....",
".....bbbbbbbbbbbbbb.....",
".....abbbbbbbbbbbba.....",
".....cbbbbbbbbbbbbg.....",
"......bbbbbbbbbbbb......",
"......ebbbbbbbbbbh......",
".......ebbbbbbbbh.......",
".........fabbag.........",
"........................",
"........................",
"........................",
"........................",
"........................",
"........................",
"........................",
"........................",
"........................",
"........................",
"........................",
"........................",
"........................",
".........ijklmn.........",
".......opbbbbbbqr.......",
"......osbbbbbbbbtr......",
"......pbuvbbbbvwbx......",
".....ibbvyzbbAyvbbB.....",
".....jbbbCyDEyDbbbF.....",
".....GbbbbAyyAbbbbH.....",
".....pbbbbAIIAbbbbq.....",
".....jbbbEyDEyDbbbF.....",
".....nbbvIzbbAyvbbJ.....",
"......qbwvbbbbvwbK......",
"......rtbbbbbbbbLM......",
".......rqbbbbbbKM.......",
".........BNOONJ.........",
"........................",
"........................",
"........................",
"........................",
"........................",
"........................",
"........................"};
