/* XPM */
static char *dummy[]={
"24 54 46 1",
"C c #032702",
". c #0f0f0f",
"I c #14571e",
"K c #15581e",
"B c #165b20",
"J c #175e21",
"h c #181c1e",
"Q c #1a5426",
"r c #1a5625",
"E c #1b7725",
"q c #1b7726",
"m c #1b7827",
"# c #1d2427",
"x c #227b32",
"H c #237d33",
"y c #237e34",
"D c #248136",
"p c #26bc3c",
"F c #26bd3b",
"n c #26bd3c",
"M c #27bc3b",
"R c #27bc3c",
"l c #2e6644",
"g c #2e6844",
"O c #2ed446",
"A c #2ed547",
"t c #2ed648",
"f c #2f6944",
"s c #2fd647",
"N c #34ac4f",
"G c #34ad4f",
"w c #34af50",
"L c #35b051",
"k c #389254",
"e c #389355",
"a c #389455",
"i c #399354",
"P c #3ae559",
"v c #3ae55a",
"u c #3ae65a",
"z c #44dc69",
"d c #49dc70",
"b c #49dd70",
"j c #4add70",
"o c #7ad082",
"c c #7ad083",
"........................",
"........................",
"........................",
"........................",
"........................",
"........................",
"........#abccde#........",
".......fccccccccg.......",
"......fccccccccccg......",
".....#cccccccccccch.....",
".....acccccccccccci.....",
".....bccccccccccccj.....",
".....cccccccccccccc.....",
".....cccccccccccccc.....",
".....bccccccccccccj.....",
".....ecccccccccccck.....",
".....#cccccccccccch.....",
"......gccccccccccl......",
".......gccccccccl.......",
"........hidccdkh........",
"........................",
"........................",
"........................",
"........................",
"........................",
"........................",
"........................",
"........................",
"........................",
"........................",
"........................",
"........................",
"........................",
".........mnoopq.........",
".......rsooooootr.......",
"......ruoooooooovr......",
"......sooowxxxyzoA......",
".....moooooBCCCDooE.....",
".....FooGoooBCCHooo.....",
".....oooHIoooJCHooo.....",
".....oooHCIoooJHooo.....",
".....FooHCCKoooLooM.....",
".....qooDCCCKoooooq.....",
"......oozyxxxNoooO......",
"......roooooooooPQ......",
".......roooooooOQ.......",
".........EoooRq.........",
"........................",
"........................",
"........................",
"........................",
"........................",
"........................",
"........................"};
