/* XPM */
static char *dummy[]={
"24 54 56 1",
". c #0f0f0f",
"x c #131314",
"l c #1a1c1e",
"# c #1e2023",
"0 c #5b4922",
"I c #5d4a21",
"E c #5e4b21",
"v c #62664a",
"i c #64684a",
"f c #65694b",
"R c #80773c",
"X c #816521",
"M c #826620",
"D c #836620",
"y c #846720",
"s c #8d925d",
"m c #8e935c",
"e c #8e935d",
"a c #8f945d",
"Q c #b2b15f",
"S c #b3b25f",
"O c #c7a838",
"1 c #c7a839",
"C c #c8a939",
"V c #c9a838",
"N c #c9a938",
"z c #c9a939",
"w c #d4dc7f",
"d c #d5dc7e",
"o c #d5dd7f",
"b c #d6dd7f",
"n c #d7dd7f",
"Y c #dec246",
"L c #dfc346",
"U c #dfc347",
"H c #dfc447",
"T c #dfc448",
"B c #e0c447",
"F c #e0c448",
"P c #e0c549",
"A c #e1c448",
"Z c #e8d85e",
"K c #e8d95f",
"J c #e8d960",
"t c #eaf388",
"k c #ebf388",
"r c #ebf389",
"g c #ecf489",
"q c #ecf48a",
"p c #ecf589",
"c c #edf58a",
"W c #eff383",
"G c #f0f484",
"u c #f0fa8b",
"j c #f1fa8b",
"h c #f1fa8c",
"........................",
"........................",
"........................",
"........................",
"........................",
"........................",
"........#abccde#........",
".......fghhhhhhgi.......",
"......fhhhhhhhhhji......",
".....#ghhhhhhhhhhkl.....",
".....ahhhhhhhhhhhhm.....",
".....nhhhhhhhhhhhho.....",
".....phhhhhhhhhhhhq.....",
".....ghhhhhhhhhhhhr.....",
".....bhhhhhhhhhhhho.....",
".....ehhhhhhhhhhhhs.....",
".....#ghhhhhhhhhhtl.....",
"......ijhhhhhhhhuv......",
".......irhhhhhhtv.......",
"........lmwppwsl........",
"........................",
"........................",
"........................",
"........................",
"........................",
"........................",
"........................",
"........................",
"........................",
"........................",
"........................",
"........................",
"........................",
"........xyzABCDx........",
".......EFGhhhhGHI.......",
"......EJhhhhhhhhKI......",
".....xFhhhhhhhhhhLx.....",
".....yGhhhhhhhhhhGM.....",
".....NhhhhhhhhhhhhO.....",
".....PhQRRRRRRRRShT.....",
".....FhSRRRRRRRRShU.....",
".....VhhhhhhhhhhhhO.....",
".....DGhhhhhhhhhhWX.....",
".....xHhhhhhhhhhhY......",
"......IKhhhhhhhhZ0......",
".......IUGhhhhWY0.......",
"........xM1BB1X.........",
"........................",
"........................",
"........................",
"........................",
"........................",
"........................",
"........................"};
