/* XPM */
static char *dummy[]={
"24 54 4 1",
". c #0f0f0f",
"b c #474951",
"# c #4a4b53",
"a c #707279",
"........................",
"........................",
"........................",
"........................",
"........................",
"........................",
"........................",
"........................",
"........................",
"........................",
"........................",
"........................",
"........#aaaaaab........",
".........#aaaab.........",
"..........#aab..........",
"...........#b...........",
"........................",
"........................",
"........................",
"........................",
"........................",
"........................",
"........................",
"........................",
"........................",
"........................",
"........................",
"........................",
"........................",
"........................",
"........................",
"........................",
"........................",
"........................",
"........................",
"........................",
"........................",
"........................",
"........................",
"........#aaaaaab........",
".........#aaaab.........",
"..........#aab..........",
"...........#b...........",
"........................",
"........................",
"........................",
"........................",
"........................",
"........................",
"........................",
"........................",
"........................",
"........................",
"........................"};
